<svg width="256" height="256" viewBox="0 0 256 256" xmlns="http://www.w3.org/2000/svg">
  <path d="M248 131.2c0-8.5-.8-16.6-2.3-24.4H130.4v46.2h66c-2.9 15-11.5 27.8-24.5 36.4v30h39.6c23.2-21.4 36.5-52.9 36.5-88.2z" fill="#4285F4"/>
  <path d="M130.4 252c33 0 60.6-10.9 80.8-29.5l-39.6-30c-11 7.4-25.1 11.8-41.2 11.8-31.7 0-58.6-21.4-68.2-50.2H21.3v31c20.1 40 61.5 67 109.1 67z" fill="#34A853"/>
  <path d="M62.2 154.1c-2.4-7.4-3.8-15.3-3.8-23.5s1.4-16.1 3.8-23.5v-31H21.3C13 92.5 8 111 8 130.6s5 38.1 13.3 54.5l40.9-31z" fill="#FBBC04"/>
  <path d="M130.4 56.9c17.9 0 34 6.2 46.7 18.3l35-35C191 20.8 163.4 8 130.4 8 82.8 8 41.4 35 21.3 75l40.9 31c9.6-28.8 36.5-49.1 68.2-49.1z" fill="#EA4335"/>
</svg>
